# xmcd
#
# Track frame offsets: 
#        150
#        13180
#        24453
#        39808
#        52130
#        63060
#        81998
#        96763
#        106245
#        121365
#        135775
#        152540
#        164373
#        178695
#        190870
#        205400
#        216110
#        230485
#        244580
#        255925
#
# Disc length: 3645 seconds
#
# Revision: 0
# Processed by: cddbd v1.5.2PL0 Copyright (c) Steve Scherf et al.
# Submitted via: ExactAudioCopy v0.95b4
#
DISCID=fe0e3b14
DTITLE=Various Artist - Texmex 1
DYEAR=1900
DGENRE=Country
TTITLE0=Ay Ansema
TTITLE1=Veinte Anos
TTITLE2=Mi Ranchito
TTITLE3=Mira Y Comprende
TTITLE4=Con Juestro Amor
TTITLE5=El Chubasco
TTITLE6=Morena La Causa Fuiste Tu
TTITLE7=Que Tal Si Te Compro
TTITLE8=El Tio Juan
TTITLE9=Corrido Del Betillo
TTITLE10=La Muerte Del Palomo
TTITLE11=He De Quererte
TTITLE12=Las Noches Las Hago Dias
TTITLE13=El Querreque
TTITLE14=Lampara Sin Luz
TTITLE15=Central Camionera
TTITLE16=El Ausenta
TTITLE17=El Contrabando Del Paso
TTITLE18=El Golpe Traidor
TTITLE19=Contrabando Y Traicion
EXTD=
EXTT0=
EXTT1=
EXTT2=
EXTT3=
EXTT4=
EXTT5=
EXTT6=
EXTT7=
EXTT8=
EXTT9=
EXTT10=
EXTT11=
EXTT12=
EXTT13=
EXTT14=
EXTT15=
EXTT16=
EXTT17=
EXTT18=
EXTT19=
PLAYORDER=
